<svg xmlns="http://www.w3.org/2000/svg" width="1440" height="820" viewBox="0 0 1440 820" role="img" aria-labelledby="title desc">
  <title id="title">ComposerUI run result detail</title><desc id="desc">A sanitized completed run showing trial results, metrics, a generated query, and an answer-refusal rate.</desc>
  <rect width="1440" height="820" fill="#0a0e14"/><rect width="1440" height="58" fill="#10141a" stroke="#414752"/>
  <text x="30" y="35" fill="#dfe2eb" font-family="monospace" font-size="16" font-weight="700">MUFFAKIR<tspan fill="#58a6ff">//</tspan>COMPOSER</text><text x="1205" y="35" fill="#8b919d" font-family="monospace" font-size="11">Run Finished</text>
  <text x="30" y="94" fill="#8b919d" font-family="monospace" font-size="11">Runs / demo-1111</text><text x="30" y="128" fill="#dfe2eb" font-family="Arial" font-size="22" font-weight="700">Arabic policy retrieval demo</text><rect x="307" y="106" width="88" height="24" rx="4" fill="#007124"/><text x="322" y="122" fill="#91f294" font-family="monospace" font-size="10">COMPLETED</text>
  <g transform="translate(30 160)"><rect width="255" height="105" rx="7" fill="#1c2026" stroke="#414752"/><text x="18" y="27" fill="#8b919d" font-family="monospace" font-size="10">BEST COMPOSITE SCORE</text><text x="18" y="64" fill="#7bdb80" font-family="monospace" font-size="31" font-weight="700">0.8900</text><text x="18" y="88" fill="#8b919d" font-family="Arial" font-size="11">Weighted evaluation score</text></g>
  <g transform="translate(303 160)"><rect width="255" height="105" rx="7" fill="#1c2026" stroke="#414752"/><text x="18" y="27" fill="#8b919d" font-family="monospace" font-size="10">TRIALS EVALUATED</text><text x="18" y="64" fill="#a2c9ff" font-family="monospace" font-size="31" font-weight="700">4 / 4</text><text x="18" y="88" fill="#8b919d" font-family="Arial" font-size="11">All combinations completed</text></g>
  <g transform="translate(576 160)"><rect width="255" height="105" rx="7" fill="#1c2026" stroke="#414752"/><text x="18" y="27" fill="#8b919d" font-family="monospace" font-size="10">LLM JUDGE RATING</text><text x="18" y="64" fill="#fabc45" font-family="monospace" font-size="31" font-weight="700">4.5 / 5</text><text x="18" y="88" fill="#8b919d" font-family="Arial" font-size="11">Best trial mean</text></g>
  <g transform="translate(849 160)"><rect width="255" height="105" rx="7" fill="#1c2026" stroke="#414752"/><text x="18" y="27" fill="#8b919d" font-family="monospace" font-size="10">ANSWER REFUSALS</text><text x="18" y="64" fill="#fabc45" font-family="monospace" font-size="31" font-weight="700">1 / 16</text><text x="18" y="88" fill="#8b919d" font-family="Arial" font-size="11">6.3% of generated answers</text></g>
  <g transform="translate(30 291)"><rect width="855" height="218" rx="8" fill="#1c2026" stroke="#414752"/><text x="20" y="30" fill="#dfe2eb" font-family="Arial" font-size="15" font-weight="700">Trial comparison</text><g font-family="monospace" font-size="11"><text x="22" y="64" fill="#8b919d">TRIAL</text><text x="116" y="64" fill="#8b919d">RETRIEVAL</text><text x="303" y="64" fill="#8b919d">RERANKER</text><text x="498" y="64" fill="#8b919d">SCORE</text><text x="594" y="64" fill="#8b919d">LLM JUDGE</text><text x="720" y="64" fill="#8b919d">LATENCY</text><path d="M20 75h815" stroke="#414752"/><text x="22" y="104" fill="#c0c7d4">1</text><text x="116" y="104" fill="#c0c7d4">similarity</text><text x="303" y="104" fill="#c0c7d4">none</text><text x="498" y="104" fill="#c0c7d4">0.7100</text><text x="594" y="104" fill="#c0c7d4">3.8 / 5</text><text x="720" y="104" fill="#c0c7d4">542 ms</text><rect x="12" y="116" width="830" height="34" rx="3" fill="#00315c"/><text x="22" y="138" fill="#a2c9ff">2</text><text x="116" y="138" fill="#a2c9ff">hybrid</text><text x="303" y="138" fill="#a2c9ff">cross_encoder</text><text x="498" y="138" fill="#a2c9ff">0.8900</text><text x="594" y="138" fill="#fabc45">4.5 / 5</text><text x="720" y="138" fill="#a2c9ff">694 ms</text><text x="22" y="178" fill="#c0c7d4">3</text><text x="116" y="178" fill="#c0c7d4">hybrid</text><text x="303" y="178" fill="#c0c7d4">none</text><text x="498" y="178" fill="#c0c7d4">0.8300</text><text x="594" y="178" fill="#c0c7d4">4.2 / 5</text><text x="720" y="178" fill="#c0c7d4">581 ms</text></g></g>
  <g transform="translate(910 291)"><rect width="500" height="218" rx="8" fill="#1c2026" stroke="#414752"/><text x="20" y="30" fill="#dfe2eb" font-family="Arial" font-size="15" font-weight="700">Sample trace</text><text x="20" y="61" fill="#8b919d" font-family="monospace" font-size="10">GENERATED QUERY</text><rect x="20" y="72" width="460" height="34" rx="4" fill="#262a31"/><text x="34" y="94" fill="#a2c9ff" font-family="monospace" font-size="11">leave request approval workflow</text><text x="20" y="136" fill="#8b919d" font-family="monospace" font-size="10">ANSWER REFUSAL SIGNAL</text><rect x="20" y="147" width="232" height="30" rx="4" fill="#5f3c00"/><text x="34" y="167" fill="#fabc45" font-family="monospace" font-size="11">1 detected · insufficient context</text><text x="20" y="202" fill="#8b919d" font-family="Arial" font-size="11">Inspect transformed queries and sample outcomes without exposing source credentials.</text></g>
  <g transform="translate(30 536)"><rect width="1380" height="150" rx="8" fill="#1c2026" stroke="#414752"/><text x="20" y="30" fill="#dfe2eb" font-family="Arial" font-size="15" font-weight="700">Winning configuration</text><g font-family="monospace" font-size="12"><text x="20" y="67" fill="#8b919d">retrieval_method</text><text x="220" y="67" fill="#dfe2eb">hybrid</text><text x="20" y="99" fill="#8b919d">reranking_model</text><text x="220" y="99" fill="#a2c9ff">BAAI/bge-reranker-v2-m3</text><text x="700" y="67" fill="#8b919d">faithfulness</text><text x="865" y="67" fill="#dfe2eb">0.94</text><text x="700" y="99" fill="#8b919d">mean latency</text><text x="865" y="99" fill="#dfe2eb">694 ms</text></g></g>
  <text x="30" y="755" fill="#8b919d" font-family="Arial" font-size="11">Sanitized ComposerUI visual • fabricated run data only</text>
</svg>
